<svg xmlns="http://www.w3.org/2000/svg" version="1.1" xmlns:xlink="http://www.w3.org/1999/xlink" xmlns:svgjs="http://svgjs.dev/svgjs" width="1500" height="1500" viewBox="0 0 1500 1500"><rect width="1500" height="1500" fill="#0a1627"></rect><g transform="matrix(0.6666666666666666,0,0,0.6666666666666666,249.39393939393938,438.58569500674764)"><svg viewBox="0 0 396 247" data-background-color="#0a1627" preserveAspectRatio="xMidYMid meet" height="935" width="1500" xmlns="http://www.w3.org/2000/svg" xmlns:xlink="http://www.w3.org/1999/xlink"><g id="tight-bounds" transform="matrix(1,0,0,1,0.2400000000000091,-0.09999999999999432)"><svg viewBox="0 0 395.52 247.2" height="247.2" width="395.52"><g><svg></svg></g><g><svg viewBox="0 0 395.52 247.2" height="247.2" width="395.52"><g transform="matrix(1,0,0,1,75.54432000000001,86.55204302610431)"><svg viewBox="0 0 244.43135999999996 74.09591394779137" height="74.09591394779137" width="244.43135999999996"><g><svg viewBox="0 0 244.43135999999996 74.09591394779137" height="74.09591394779137" width="244.43135999999996"><g><svg viewBox="0 0 393.60495795096233 119.31578294110278" height="74.09591394779137" width="244.43135999999996"><g transform="matrix(1,0,0,1,149.17359795096232,16.490097352930995)"><svg viewBox="0 0 244.43135999999998 86.33558823524079" height="86.33558823524079" width="244.43135999999998"><g id="textblocktransform"><svg viewBox="0 0 244.43135999999998 86.33558823524079" height="86.33558823524079" width="244.43135999999998" id="textblock"><g><svg viewBox="0 0 244.43135999999998 46.56529087008342" height="46.56529087008342" width="244.43135999999998"><g transform="matrix(1,0,0,1,0,0)"><svg width="244.43135999999998" viewBox="0.85 -37.6 251.68 47.95" height="46.56529087008342" data-palette-color="#fe0039"><path d="M17.8-37.4L17.8-21.25 26.75-37.25 31.15-37.25 19.95-21.2Q20.65-21.25 21.18-21.28 21.7-21.3 22.1-21.3L22.1-21.3Q24.65-21.3 26.2-20.65 27.75-20 28.63-18.88 29.5-17.75 29.78-16.23 30.05-14.7 30.05-12.95L30.05-12.95Q30.05-12.05 30-11 29.95-9.95 29.93-8.93 29.9-7.9 29.85-6.95 29.8-6 29.8-5.25L29.8-5.25Q29.8-3 30.63-1.7 31.45-0.4 32.65 0L32.65 0Q31.15 0.45 30.2 0.65 29.25 0.85 28.35 0.85L28.35 0.85Q26.1 0.85 25.03-0.6 23.95-2.05 23.95-4.3L23.95-4.3Q23.95-5.25 24.03-6.45 24.1-7.65 24.23-8.88 24.35-10.1 24.43-11.28 24.5-12.45 24.5-13.4L24.5-13.4Q24.5-15.1 24.13-16.28 23.75-17.45 23.13-18.13 22.5-18.8 21.63-19.1 20.75-19.4 19.75-19.4L19.75-19.4Q18.9-19.4 17.8-19.15L17.8-19.15 17.8 0 12.3 0 12.3-34.6Q8.85-33.6 6.83-31.28 4.8-28.95 4.8-25.45L4.8-25.45Q4.8-23.85 5.18-22.35 5.55-20.85 6.9-19.65L6.9-19.65Q5.7-19.65 4.6-19.98 3.5-20.3 2.68-21.03 1.85-21.75 1.35-22.9 0.85-24.05 0.85-25.7L0.85-25.7Q0.85-28.1 2.1-30.23 3.35-32.35 5.43-33.98 7.5-35.6 10.18-36.55 12.85-37.5 15.7-37.5L15.7-37.5Q16.25-37.5 16.78-37.48 17.3-37.45 17.8-37.4L17.8-37.4ZM48.05-37.4L48.05 0 42.55 0 42.55-34.55Q39.2-33.6 37.25-31.3 35.3-29 35.3-25.55L35.3-25.55Q35.3-24.2 35.5-23.28 35.7-22.35 36-21.68 36.3-21 36.72-20.53 37.15-20.05 37.6-19.65L37.6-19.65Q34.6-19.65 32.85-21.03 31.1-22.4 31.1-25.7L31.1-25.7Q31.1-28.1 32.35-30.23 33.6-32.35 35.67-33.98 37.75-35.6 40.42-36.55 43.1-37.5 45.95-37.5L45.95-37.5Q46.5-37.5 47.02-37.48 47.55-37.45 48.05-37.4L48.05-37.4ZM80.14-37.4L83.5-37.4 83.5 0 76.8 0 64.25-28.15 64.25 0 60.89 0 60.89-34.45Q58.14-33.5 56.59-31.43 55.05-29.35 55.05-26L55.05-26Q55.05-24.45 55.3-23.38 55.55-22.3 55.89-21.58 56.24-20.85 56.67-20.4 57.09-19.95 57.45-19.65L57.45-19.65Q54.3-19.65 52.82-21.18 51.34-22.7 51.34-26.1L51.34-26.1Q51.34-28.15 52.17-30.18 52.99-32.2 54.49-33.83 55.99-35.45 58.09-36.48 60.2-37.5 62.74-37.5L62.74-37.5Q63.59-37.5 64.5-37.35 65.39-37.2 66.25-36.8L66.25-36.8 80.14-4.7 80.14-37.4ZM108.79-20.95L113.64-20.9 113.64-2.1Q113.64 0.8 113.04 3.1 112.44 5.4 111.22 7.03 109.99 8.65 108.07 9.5 106.14 10.35 103.44 10.35L103.44 10.35Q100.94 10.35 99.27 9.65 97.59 8.95 96.59 7.85 95.59 6.75 95.19 5.38 94.79 4 94.79 2.7L94.79 2.7Q94.79 1.6 95.07 0.53 95.34-0.55 96.02-1.43 96.69-2.3 97.82-2.85 98.94-3.4 100.59-3.4L100.59-3.4Q102.59-3.4 103.89-2.53 105.19-1.65 105.19 0.1L105.19 0.1Q105.19 0.35 105.14 0.73 105.09 1.1 104.94 1.5L104.94 1.5Q104.09 0.55 103.22 0.33 102.34 0.1 101.79 0.1L101.79 0.1Q100.04 0.1 99.24 1.05 98.44 2 98.44 3.45L98.44 3.45Q98.44 4.5 98.84 5.43 99.24 6.35 99.92 7 100.59 7.65 101.52 8.03 102.44 8.4 103.44 8.4L103.44 8.4Q104.29 8.4 105.14 8.08 105.99 7.75 106.67 7 107.34 6.25 107.77 4.95 108.19 3.65 108.19 1.7L108.19 1.7 108.19-10.2Q106.89-7.8 104.74-6.63 102.59-5.45 99.84-5.45L99.84-5.45Q97.09-5.45 94.82-6.58 92.54-7.7 90.89-9.73 89.24-11.75 88.34-14.63 87.44-17.5 87.44-21.05L87.44-21.05Q87.44-24.35 88.29-27.35 89.14-30.35 90.99-32.63 92.84-34.9 95.69-36.25 98.54-37.6 102.54-37.6L102.54-37.6Q104.34-37.6 106.14-37.27 107.94-36.95 109.42-36.13 110.89-35.3 111.82-33.9 112.74-32.5 112.74-30.35L112.74-30.35Q112.74-29.7 112.62-28.98 112.49-28.25 112.14-27.63 111.79-27 111.17-26.6 110.54-26.2 109.49-26.2L109.49-26.2Q108.59-26.2 107.97-26.53 107.34-26.85 106.29-27.5L106.29-27.5Q106.39-27.5 106.74-27.65 107.09-27.8 107.47-28.18 107.84-28.55 108.14-29.25 108.44-29.95 108.44-31.05L108.44-31.05Q108.44-33.5 106.94-34.6 105.44-35.7 103.24-35.7L103.24-35.7Q100.79-35.7 98.97-34.48 97.14-33.25 95.92-31.25 94.69-29.25 94.09-26.65 93.49-24.05 93.49-21.35L93.49-21.35Q93.49-18.75 94.04-16.48 94.59-14.2 95.59-12.53 96.59-10.85 98.07-9.9 99.54-8.95 101.39-8.95L101.39-8.95Q104.69-8.95 106.54-12.08 108.39-15.2 108.79-20.95L108.79-20.95ZM117.49-28.05L118.54-37.5 122.79-37.5 120.24-28.05 117.49-28.05ZM146.04-30.6L146.04-30.6Q146.04-28.6 145.21-27.5 144.39-26.4 143.04-26.4L143.04-26.4Q142.34-26.4 141.86-26.65 141.39-26.9 140.89-27.45L140.89-27.45Q141.59-27.95 141.96-28.9 142.34-29.85 142.34-30.9L142.34-30.9Q142.34-31.75 142.06-32.6 141.79-33.45 141.19-34.13 140.59-34.8 139.69-35.23 138.79-35.65 137.54-35.65L137.54-35.65Q136.24-35.65 135.21-35.18 134.19-34.7 133.51-33.88 132.84-33.05 132.49-31.95 132.14-30.85 132.14-29.6L132.14-29.6Q132.14-27.2 133.31-25.75 134.49-24.3 136.24-23.3 137.99-22.3 140.06-21.4 142.14-20.5 143.89-19.18 145.64-17.85 146.81-15.83 147.99-13.8 147.99-10.45L147.99-10.45Q147.99-7.45 146.99-5.33 145.99-3.2 144.36-1.9 142.74-0.6 140.64 0 138.54 0.6 136.34 0.6L136.34 0.6Q134.39 0.6 132.49 0.15 130.59-0.3 129.09-1.28 127.59-2.25 126.66-3.78 125.74-5.3 125.74-7.45L125.74-7.45Q125.74-8.7 126.09-10 126.44-11.3 127.11-12.35 127.79-13.4 128.81-14.08 129.84-14.75 131.19-14.75L131.19-14.75Q132.29-14.75 133.06-14.15 133.84-13.55 134.44-11.9L134.44-11.9Q133.24-11.85 132.46-11.4 131.69-10.95 131.24-10.3 130.79-9.65 130.61-8.9 130.44-8.15 130.44-7.5L130.44-7.5Q130.44-6.15 131.04-5.15 131.64-4.15 132.56-3.48 133.49-2.8 134.56-2.48 135.64-2.15 136.64-2.15L136.64-2.15Q138.94-2.15 140.44-3.9 141.94-5.65 141.94-8.95L141.94-8.95Q141.94-11.75 140.86-13.38 139.79-15 138.14-16.1 136.49-17.2 134.61-18 132.74-18.8 131.09-19.9 129.44-21 128.36-22.73 127.29-24.45 127.29-27.35L127.29-27.35Q127.29-29.85 128.14-31.75 128.99-33.65 130.36-34.93 131.74-36.2 133.56-36.83 135.39-37.45 137.34-37.45L137.34-37.45Q138.19-37.45 139.66-37.25 141.14-37.05 142.56-36.35 143.99-35.65 145.01-34.27 146.04-32.9 146.04-30.6ZM182.53 0L177.18 0 172.73-25.7 168.68 0 165.68 0 171.18-35Q168.03-34.3 166.33-31.98 164.63-29.65 164.63-25.45L164.63-25.45Q164.63-23.75 164.86-22.68 165.08-21.6 165.38-20.95 165.68-20.3 166.01-20.03 166.33-19.75 166.48-19.65L166.48-19.65Q163.78-19.65 162.13-21.03 160.48-22.4 160.48-25.35L160.48-25.35Q160.48-27.8 161.68-30.03 162.88-32.25 164.73-33.9 166.58-35.55 168.81-36.52 171.03-37.5 173.13-37.5L173.13-37.5Q173.93-37.5 174.71-37.35 175.48-37.2 176.18-36.8L176.18-36.8 181.18-7.75 187.03-36.8 192.73-36.8 195.53 0 189.83 0 187.83-26.2 182.53 0ZM221.83-9L223.08-8.5Q222.38-6.25 221.03-4.5 219.68-2.75 217.88-1.55 216.08-0.35 213.98 0.28 211.88 0.9 209.73 0.9L209.73 0.9Q206.88 0.9 204.85-0.13 202.83-1.15 201.56-2.75 200.28-4.35 199.68-6.38 199.08-8.4 199.08-10.45L199.08-10.45Q199.08-14.15 200.85-16.85 202.63-19.55 205.83-20.85L205.83-20.85Q203.43-22.35 202.38-24.3 201.33-26.25 201.33-28.4L201.33-28.4Q201.33-30.05 201.93-31.7 202.53-33.35 203.78-34.65 205.03-35.95 206.85-36.77 208.68-37.6 211.18-37.6L211.18-37.6Q212.53-37.6 213.91-37.3 215.28-37 216.38-36.27 217.48-35.55 218.16-34.33 218.83-33.1 218.83-31.25L218.83-31.25Q218.83-29.35 218.08-28.25 217.33-27.15 216.08-27.15L216.08-27.15Q214.73-27.15 213.43-28.5L213.43-28.5Q214.13-28.8 214.81-29.73 215.48-30.65 215.48-32.1L215.48-32.1Q215.48-33.05 215.13-33.73 214.78-34.4 214.21-34.85 213.63-35.3 212.93-35.5 212.23-35.7 211.48-35.7L211.48-35.7Q210.13-35.7 209.08-35.1 208.03-34.5 207.33-33.52 206.63-32.55 206.25-31.33 205.88-30.1 205.88-28.85L205.88-28.85Q205.88-28.3 206-27.18 206.13-26.05 206.71-24.83 207.28-23.6 208.41-22.48 209.53-21.35 211.48-20.9L211.48-20.9Q208.18-20.15 206.41-17.53 204.63-14.9 204.63-11.3L204.63-11.3Q204.63-7.7 206.56-5.38 208.48-3.05 212.48-3.05L212.48-3.05Q214.28-3.05 215.81-3.53 217.33-4 218.5-4.83 219.68-5.65 220.53-6.73 221.38-7.8 221.83-9L221.83-9ZM249.18-37.4L252.53-37.4 252.53 0 245.83 0 233.28-28.15 233.28 0 229.93 0 229.93-34.45Q227.18-33.5 225.63-31.43 224.08-29.35 224.08-26L224.08-26Q224.08-24.45 224.33-23.38 224.58-22.3 224.93-21.58 225.28-20.85 225.7-20.4 226.13-19.95 226.48-19.65L226.48-19.65Q223.33-19.65 221.85-21.18 220.38-22.7 220.38-26.1L220.38-26.1Q220.38-28.15 221.2-30.18 222.03-32.2 223.53-33.83 225.03-35.45 227.13-36.48 229.23-37.5 231.78-37.5L231.78-37.5Q232.63-37.5 233.53-37.35 234.43-37.2 235.28-36.8L235.28-36.8 249.18-4.7 249.18-37.4Z" opacity="1" transform="matrix(1,0,0,1,0,0)" fill="#fe0039" class="wordmark-text-0" data-fill-palette-color="primary" id="text-0"></path></svg></g></svg></g><g transform="matrix(1,0,0,1,0,57.55823847752924)"><svg viewBox="0 0 244.43135999999998 28.777349757711555" height="28.777349757711555" width="244.43135999999998"><g transform="matrix(1,0,0,1,0,0)"><svg width="244.43135999999998" viewBox="1.76 -32.57 279.12 32.86" height="28.777349757711555" data-palette-color="#c1c1c1"><path d="M22.31-8.59L22.31-8.59Q22.31-11.72 20.21-13.94 18.12-16.16 13.62-16.16L13.62-16.16Q12.55-16.16 10.11-15.97L10.11-15.97Q9.91-15.38 9.91-14.36L9.91-14.36 9.91-7.23Q9.91-3.52 10.69-2.88L10.69-2.88Q11.43-2.2 13.33-2.2L13.33-2.2Q14.55-2.2 15.75-2.39 16.94-2.59 18.6-3.15 20.26-3.71 21.29-5.1 22.31-6.49 22.31-8.59ZM5.66-6.98L5.66-6.98 5.66-25.44Q5.66-28.32 5.32-29.64L5.32-29.64Q5.18-30.03 3.88-30.37 2.59-30.71 1.95-30.71L1.95-30.71Q1.76-30.71 1.76-31.3L1.76-31.3Q1.76-31.93 1.95-32.13L1.95-32.13Q4.49-32.03 7.76-32.03L7.76-32.03Q10.25-32.03 11.84-32.06 13.43-32.08 14.65-32.08L14.65-32.08Q15.92-32.08 17.24-31.86 18.55-31.64 19.95-31.05 21.34-30.47 22.41-29.59 23.49-28.71 24.17-27.27 24.85-25.83 24.85-24.07 24.85-22.31 23.73-20.8 22.61-19.29 21.66-18.7 20.7-18.12 20.02-17.87L20.02-17.87Q19.63-17.72 19.78-17.58L19.78-17.58Q21.68-17.24 24.32-14.82 26.95-12.4 26.95-9.13L26.95-9.13Q26.95-4.93 23.56-2.47 20.17 0 14.55 0L14.55 0 7.86 0 1.95 0.15Q1.81 0 1.81-0.63 1.81-1.27 1.95-1.27L1.95-1.27Q2.59-1.27 3.83-1.61 5.08-1.95 5.32-2.39L5.32-2.39Q5.66-2.98 5.66-6.98ZM15.87-18.36L15.87-18.36Q17.87-18.55 19.21-19.75 20.56-20.95 20.56-22.95L20.56-22.95Q20.56-26.32 18.87-28.2 17.19-30.08 13.87-30.08L13.87-30.08Q11.62-30.08 10.4-29.74L10.4-29.74Q10.11-29.69 10.11-29.3L10.11-29.3 9.91-24.37 9.91-18.55Q9.91-18.21 13.13-18.21L13.13-18.21Q14.7-18.21 15.87-18.36ZM54.4-32.08L54.4-32.08Q55.18-32.08 60.06-32.32L60.06-32.32Q60.16-32.03 60.16-31.64L60.16-31.64Q60.16-30.91 59.96-30.91L59.96-30.91Q59.48-30.91 58.21-30.57 56.94-30.22 56.84-29.88L56.84-29.88Q56.4-28.17 56.4-25.34L56.4-25.34 56.4-14.45Q56.4-8.94 58.74-5.66 61.09-2.39 65.38-2.39L65.38-2.39Q73.73-2.39 73.73-13.38L73.73-13.38 73.73-25.59Q73.73-28.56 73.39-29.88L73.39-29.88Q73.25-30.27 71.71-30.64 70.17-31.01 69.53-31.01L69.53-31.01Q69.34-31.01 69.34-31.57 69.34-32.13 69.53-32.32L69.53-32.32Q70.17-32.28 72.07-32.15 73.98-32.03 75.3-32.03L75.3-32.03Q76.57-32.03 78.49-32.18 80.42-32.32 80.77-32.32L80.77-32.32Q80.86-32.03 80.86-31.59L80.86-31.59Q80.86-31.01 80.67-31.01L80.67-31.01Q80.18-31.01 78.54-30.62 76.91-30.22 76.81-29.88L76.81-29.88Q76.42-28.37 76.42-25.34L76.42-25.34 76.42-13.48Q76.42-5.91 73.25-2.95 70.07 0 64.21 0L64.21 0Q58.4 0 55.28-3.42 52.15-6.84 52.15-14.45L52.15-14.45 52.15-25.54Q52.15-28.56 51.81-29.88L51.81-29.88Q51.66-30.27 50.42-30.59 49.17-30.91 48.54-30.91L48.54-30.91Q48.34-30.91 48.34-31.54L48.34-31.54Q48.34-32.13 48.54-32.32L48.54-32.32Q54.15-32.08 54.4-32.08ZM113.68-30.08L113.68-30.08Q111.48-30.08 110.26-29.74L110.26-29.74Q110.07-29.69 109.94-29.37 109.82-29.05 109.75-27.91 109.68-26.76 109.68-24.37L109.68-24.37 109.68-18.46Q109.68-17.04 113.92-17.04L113.92-17.04 115.14-17.04Q116.85-17.04 118.68-18.75 120.52-20.46 120.52-23.29L120.52-23.29Q120.52-30.08 113.68-30.08ZM114.46-32.23L114.46-32.23Q116.12-32.23 117.83-31.74 119.54-31.25 121.2-30.27 122.86-29.3 123.93-27.49 125.01-25.68 125.01-23.29L125.01-23.29Q125.01-21.24 123.47-18.99 121.93-16.75 119.29-15.53L119.29-15.53Q118.81-15.33 119-15.04L119-15.04Q121.44-9.91 124.62-6.45L124.62-6.45Q129.3-1.32 132.23-1.32L132.23-1.32Q132.38-1.03 132.38-0.63L132.38-0.63Q132.38-0.2 132.23 0.1L132.23 0.1Q131.7 0.24 130.92 0.24L130.92 0.24Q124.08 0.24 119.05-6.79L119.05-6.79Q118.27-7.86 117.27-9.35 116.27-10.84 115.8-11.5 115.34-12.16 114.73-12.94 114.12-13.72 113.65-14.11 113.19-14.5 112.65-14.75L112.65-14.75Q112.12-14.94 110.85-14.94L110.85-14.94Q110.46-14.94 110.26-14.92 110.07-14.89 109.87-14.7 109.68-14.5 109.68-14.11L109.68-14.11 109.68-6.93Q109.68-3.66 110.07-2.69L110.07-2.69Q110.31-2.05 111.8-1.66 113.29-1.27 113.92-1.27L113.92-1.27Q114.12-1.27 114.12-0.59L114.12-0.59Q114.12-0.15 114.02 0.15L114.02 0.15Q109.14-0.1 107.67-0.1L107.67-0.1 101.72 0.15Q101.57 0 101.57-0.73L101.57-0.73Q101.57-1.37 101.72-1.37L101.72-1.37Q102.4-1.37 103.62-1.66 104.84-1.95 105.09-2.39L105.09-2.39Q105.43-2.98 105.43-6.98L105.43-6.98 105.43-25.44Q105.43-28.32 105.09-29.64L105.09-29.64Q104.94-30.03 103.65-30.37 102.35-30.71 101.72-30.71L101.72-30.71Q101.52-30.71 101.52-31.3L101.52-31.3Q101.52-31.93 101.72-32.13L101.72-32.13 107.58-32.03Q109.04-32.03 111.04-32.13 113.04-32.23 114.46-32.23ZM151.87-15.72L151.87-15.72Q151.87-22.66 156.51-27.61 161.14-32.57 167.88-32.57L167.88-32.57Q171.35-32.57 179.45-30.37L179.45-30.37Q179.65-24.8 179.65-24.32L179.65-24.32Q179.65-23.58 178.62-23.58L178.62-23.58Q178.14-23.58 177.99-23.83L177.99-23.83Q176.67-30.52 168.03-30.52L168.03-30.52Q163.15-30.52 159.87-26.37 156.6-22.22 156.6-16.36L156.6-16.36Q156.6-10.94 160.19-6.37 163.78-1.81 169.2-1.81L169.2-1.81Q173.5-1.81 175.55-2.88L175.55-2.88Q175.89-3.03 175.89-3.61L175.89-3.61 175.84-7.62 175.84-7.96Q175.84-11.13 175.45-12.16L175.45-12.16Q175.26-12.65 173.86-12.94 172.47-13.23 171.69-13.23L171.69-13.23Q171.5-13.23 171.5-13.84 171.5-14.45 171.69-14.65L171.69-14.65Q177.94-14.4 178.09-14.4L178.09-14.4Q178.48-14.4 183.36-14.65L183.36-14.65Q183.46-14.36 183.46-13.96L183.46-13.96Q183.46-13.23 183.26-13.23L183.26-13.23Q182.97-13.23 181.92-12.92 180.87-12.6 180.43-12.35L180.43-12.35Q179.94-12.01 179.94-9.08L179.94-9.08Q179.94-8.06 180.02-6.86 180.09-5.66 180.09-5.57L180.09-5.57Q180.09-4.69 180.43-3.86 180.77-3.03 180.77-2.88L180.77-2.88Q180.77-2.49 179.55-2L179.55-2Q179.45-1.95 178.6-1.64 177.75-1.32 177.5-1.22 177.26-1.12 176.4-0.85 175.55-0.59 175.04-0.49 174.52-0.39 173.57-0.2 172.62 0 171.76 0.07 170.91 0.15 169.76 0.22 168.61 0.29 167.35 0.29L167.35 0.29Q160.9 0.29 156.38-4.44 151.87-9.18 151.87-15.72ZM209.88-32.03L209.88-32.03Q212.08-32.03 217.5-32.23 222.92-32.42 225.65-32.42L225.65-32.42Q225.84-31.01 226.41-28.69 226.97-26.37 227.07-25.78L227.07-25.78Q226.82-25.54 226.19-25.54 225.55-25.54 225.5-25.88L225.5-25.88Q224.77-28.56 223.45-29.32 222.13-30.08 219.84-30.08L219.84-30.08 216.57-30.08Q212.37-30.08 212.27-29.44L212.27-29.44Q212.03-28.27 212.03-25.34L212.03-25.34 212.03-17.53Q212.03-17.24 214.13-17.24L214.13-17.24 216.71-17.24Q218.08-17.24 218.69-17.24 219.3-17.24 219.99-17.43 220.67-17.63 220.86-17.68 221.06-17.72 221.38-18.31 221.69-18.9 221.74-19.17 221.79-19.43 222.09-20.56L222.09-20.56Q222.13-20.9 222.82-20.9L222.82-20.9Q223.4-20.9 223.65-20.65L223.65-20.65 223.65-11.43Q223.45-11.23 222.87-11.23L222.87-11.23Q222.23-11.23 222.09-11.62L222.09-11.62Q221.74-12.94 221.5-13.6 221.26-14.26 221.13-14.38 221.01-14.5 220.72-14.7L220.72-14.7Q220.08-15.09 215.54-15.09L215.54-15.09Q212.03-15.09 212.03-14.65L212.03-14.65 212.03-7.08Q212.03-3.91 212.47-2.64L212.47-2.64Q212.61-2.15 215.79-2.15L215.79-2.15 218.13-2.15Q222.67-2.15 224.28-2.98L224.28-2.98Q225.01-3.37 225.92-4.71 226.82-6.05 227.36-7.91L227.36-7.91Q227.46-8.2 228.04-8.2L228.04-8.2Q228.97-8.2 229.26-7.91L229.26-7.91Q229.02-7.28 228.51-5.88 227.99-4.49 227.7-3.64 227.41-2.78 227.07-1.66 226.72-0.54 226.63 0.2L226.63 0.2Q224.14 0.2 218.76 0.1 213.39 0 209.98 0L209.98 0 204.07 0.15Q203.92 0 203.92-0.63 203.92-1.27 204.07-1.27L204.07-1.27Q204.7-1.27 205.95-1.61 207.19-1.95 207.44-2.39L207.44-2.39Q207.78-2.98 207.78-6.98L207.78-6.98 207.78-25.44Q207.78-28.32 207.44-29.64L207.44-29.64Q207.29-30.03 206-30.37 204.7-30.71 204.07-30.71L204.07-30.71Q203.87-30.71 203.87-31.3L203.87-31.3Q203.87-31.93 204.07-32.13L204.07-32.13Q206.61-32.03 209.88-32.03ZM262.18-30.08L262.18-30.08Q259.98-30.08 258.76-29.74L258.76-29.74Q258.56-29.69 258.44-29.37 258.32-29.05 258.25-27.91 258.17-26.76 258.17-24.37L258.17-24.37 258.17-18.46Q258.17-17.04 262.42-17.04L262.42-17.04 263.64-17.04Q265.35-17.04 267.18-18.75 269.01-20.46 269.01-23.29L269.01-23.29Q269.01-30.08 262.18-30.08ZM262.96-32.23L262.96-32.23Q264.62-32.23 266.33-31.74 268.04-31.25 269.7-30.27 271.36-29.3 272.43-27.49 273.5-25.68 273.5-23.29L273.5-23.29Q273.5-21.24 271.97-18.99 270.43-16.75 267.79-15.53L267.79-15.53Q267.3-15.33 267.5-15.04L267.5-15.04Q269.94-9.91 273.11-6.45L273.11-6.45Q277.8-1.32 280.73-1.32L280.73-1.32Q280.88-1.03 280.88-0.63L280.88-0.63Q280.88-0.2 280.73 0.1L280.73 0.1Q280.19 0.24 279.41 0.24L279.41 0.24Q272.58 0.24 267.55-6.79L267.55-6.79Q266.77-7.86 265.77-9.35 264.76-10.84 264.3-11.5 263.84-12.16 263.23-12.94 262.62-13.72 262.15-14.11 261.69-14.5 261.15-14.75L261.15-14.75Q260.61-14.94 259.34-14.94L259.34-14.94Q258.95-14.94 258.76-14.92 258.56-14.89 258.37-14.7 258.17-14.5 258.17-14.11L258.17-14.11 258.17-6.93Q258.17-3.66 258.56-2.69L258.56-2.69Q258.81-2.05 260.3-1.66 261.79-1.27 262.42-1.27L262.42-1.27Q262.62-1.27 262.62-0.59L262.62-0.59Q262.62-0.15 262.52 0.15L262.52 0.15Q257.64-0.1 256.17-0.1L256.17-0.1 250.21 0.15Q250.07 0 250.07-0.73L250.07-0.73Q250.07-1.37 250.21-1.37L250.21-1.37Q250.9-1.37 252.12-1.66 253.34-1.95 253.58-2.39L253.58-2.39Q253.92-2.98 253.92-6.98L253.92-6.98 253.92-25.44Q253.92-28.32 253.58-29.64L253.58-29.64Q253.44-30.03 252.14-30.37 250.85-30.71 250.21-30.71L250.21-30.71Q250.02-30.71 250.02-31.3L250.02-31.3Q250.02-31.93 250.21-32.13L250.21-32.13 256.07-32.03Q257.54-32.03 259.54-32.13 261.54-32.23 262.96-32.23Z" opacity="1" transform="matrix(1,0,0,1,0,0)" fill="#c1c1c1" class="slogan-text-1" data-fill-palette-color="secondary" id="text-1"></path></svg></g></svg></g></svg></g></svg></g><g><svg viewBox="0 0 138.1806503435165 119.31578294110278" height="119.31578294110278" width="138.1806503435165"><g><svg xmlns="http://www.w3.org/2000/svg" xmlns:xlink="http://www.w3.org/1999/xlink" version="1.1" x="0" y="0" viewBox="14.628799576611097 46.69999999999999 470.7712004233889 406.5" enable-background="new 0 0 500 500" xml:space="preserve" height="119.31578294110278" width="138.1806503435165" class="icon-icon-0" data-fill-palette-color="accent" id="icon-0"><path d="M451.9 333.2c2.5-5.5 3.5-11 3.5-17.5 0-10.5-4-20.5-10.5-28.5 6.5-7.5 10.5-17.5 10.5-28.5 0-7-2-14-4.5-20l16-4.5c7-2.5 11-9 10-16.5-1-7-7-12.5-14.5-12.5h-4c-9.5-88-99-158.5-207-158.5-108.5 0-197.5 70-207.5 159h-7.5c-7 0-13.5 5.5-14.5 12.5s3 14 10 16.5l16 4.5c-3 6-4.5 13-4.5 20 0 10.5 4 20.5 10.5 28.5-6.5 7.5-10.5 17.5-10.5 28.5 0 8 2.5 15 6 21.5-14 4.5-28 13-33.5 26.5-3 6.5-0.5 14 5.5 18 0.5 0.5 9.5 6 23.5 12.5 4.5 32.5 32.5 58.5 66.5 58.5h276.5c32.5 0 60-23.5 66.5-55 7-1 13.5-2.5 19.5-3.5 7-2 11.5-7.5 11.5-14.5C483.9 366.8 476.9 343.2 451.9 333.2zM79.9 302.2c2 0 4 0.5 6.5 0.5h325.5c2.5 0 4 0 6.5-0.5 5.5 2.5 9 7.5 9 13.5 0 8-6.5 14.5-14.5 14.5H86.4c-8 0-14.5-6.5-14.5-14.5C71.4 309.7 74.9 304.3 79.9 302.2zM131.9 234.8h233.5l-117 36L131.9 234.8zM451.4 368.2c-19.5 3-42 4.5-68 4.5-32.5 0-58-3-58-3-4-0.5-7.5 0.5-10.5 3.5-11.5 9.5-29 14.5-51.5 14.5-41.5 0-85.5-16.5-86-17-2-0.5-3.5-1-5.5-1-2 0-3.5 0.5-5.5 1-15 6.5-31 9.5-48 9.5-26.5 0-49-7.5-64.5-14 9.5-3.5 23-6.5 34.5-7h323 28C445.4 361.8 448.9 364.7 451.4 368.2zM425.9 258.8c0 6-3.5 11-9 13.5-2 0-4-0.5-6.5-0.5h-65.5l76-23.5C424.4 250.8 425.9 254.8 425.9 258.8zM237.9 76.7c-2 2.5-2.5 4.5-2.5 7.5 0 8 6.5 15 15 15 9 0 15-7 15-15 0-3-0.5-5.5-2.5-7.5 86 4.5 155.5 59.5 165 129h-356C82.4 136.3 151.4 81.3 237.9 76.7zM152.4 271.8H85.9c-2.5 0-4 0-6.5 0.5-5.5-2.5-9-7.5-9-13.5 0-4 2-8 4.5-11L152.4 271.8zM386.9 423.2H110.4c-13.5 0-25.5-7-32.5-18 12.5 3 25.5 4.5 39.5 4.5 18.5 0 37-3 54-9.5 14 4.5 52.5 17 91 17 27 0 48.5-6 65.5-17 9.5 0.5 30.5 2.5 55.5 2.5l0 0c13.5 0 26.5-0.5 38.5-1C415.4 413.8 401.9 423.2 386.9 423.2z" fill="#fe0039" data-fill-palette-color="accent"></path><circle cx="205.4" cy="114.8" r="15" fill="#fe0039" data-fill-palette-color="accent"></circle><circle cx="259.9" cy="136.3" r="15" fill="#fe0039" data-fill-palette-color="accent"></circle><circle cx="303.4" cy="110.2" r="15" fill="#fe0039" data-fill-palette-color="accent"></circle></svg></g></svg></g></svg></g></svg></g></svg></g><g><path d="M0 123.6c0-68.262 55.338-123.6 123.6-123.6 54.092 0 100.068 34.747 116.825 83.139l-1.381 0c-16.703-47.658-62.082-81.835-115.444-81.835-67.542 0-122.296 54.754-122.296 122.296 0 67.542 54.754 122.296 122.296 122.296 53.362 0 98.742-34.177 115.444-81.835l1.381 0c-16.757 48.391-62.734 83.139-116.825 83.139-68.262 0-123.6-55.338-123.6-123.6z" fill="#fe0039" stroke="transparent" data-fill-palette-color="tertiary"></path></g></svg></g><defs></defs></svg><rect width="395.52" height="247.2" fill="none" stroke="none" visibility="hidden"></rect></g></svg></g></svg>